<?xml version="1.0" encoding="utf-8"?>
<!-- Generator: Adobe Illustrator 28.1.0, SVG Export Plug-In . SVG Version: 6.00 Build 0)  -->
<svg version="1.1" id="_x32_" xmlns="http://www.w3.org/2000/svg" xmlns:xlink="http://www.w3.org/1999/xlink" x="0px" y="0px"
	 viewBox="0 0 10 10" style="enable-background:new 0 0 10 10;" xml:space="preserve">
<g>
	<path d="M6,1.3c-1.3-1.2-3.6-1.2-4.8,0C0,2.6,0,4.6,1.2,5.8C2.7,7,4.8,7,6,5.8S7.5,2.6,6,1.3z M5.6,5.4c-1,1-2.7,1-3.8,0
		s-1-2.6,0-3.7c1-1,2.7-1,3.8,0S6.7,4.4,5.6,5.4z"/>
	<path d="M2.3,2.2C1.6,3,1.6,3.8,2.1,4.6h0.2V4.4C1.8,3.8,1.8,3,2.3,2.2C2.5,2.4,2.5,2.4,2.3,2.2L2.3,2.2z"/>
	<path d="M9.6,8.1L7.1,6C6.9,5.8,6.7,5.8,6.7,6L6.2,6.4C6,6.4,6,6.6,6.2,6.8l2.3,2.4c0.2,0.4,0.6,0.4,1,0C9.8,8.7,9.8,8.3,9.6,8.1z"
		/>
</g>
</svg>
